# Blender v2.90.1 OBJ File: ''
# www.blender.org
mtllib TheGreatBox.mtl
o Cube.001
v 20.000000 -3.019997 -20.000000
v -20.000000 -3.019997 -20.000000
v -20.000000 -3.020003 20.000000
v 20.000000 -3.020003 20.000000
v 20.000000 -5.020003 20.000000
v -20.000000 -5.020003 20.000000
v -20.000000 -5.019997 -20.000000
v 20.000000 -5.019997 -20.000000
vt 0.751000 0.500000
vt 1.001000 0.500000
vt 1.001000 0.750000
vt 0.751000 0.750000
vt 0.501000 0.750000
vt 0.751000 1.000000
vt 0.501000 1.000000
vt 0.501000 0.000000
vt 0.751000 0.000000
vt 0.751000 0.250000
vt 0.501000 0.250000
vt 0.251000 0.500000
vt 0.501000 0.500000
vt 0.251000 0.750000
vn 0.0000 1.0000 0.0000
vn 0.0000 0.0000 1.0000
vn -1.0000 0.0000 0.0000
vn 0.0000 -1.0000 -0.0000
vn 1.0000 0.0000 0.0000
vn 0.0000 0.0000 -1.0000
usemtl Material.001
s 1
f 1/1/1 2/2/1 3/3/1 4/4/1
f 5/5/2 4/4/2 3/6/2 6/7/2
f 6/8/3 3/9/3 2/10/3 7/11/3
f 7/12/4 8/13/4 5/5/4 6/14/4
f 8/13/5 1/1/5 4/4/5 5/5/5
f 7/11/6 2/10/6 1/1/6 8/13/6
