# Blender v2.90.1 OBJ File: ''
# www.blender.org
mtllib cube2.mtl
o Cube.001
v 4.197414 5.725762 -6.107630
v 3.232003 5.982552 -5.647152
v 3.505126 5.343675 -4.718261
v 4.470538 5.086885 -5.178739
v 4.027997 4.237448 -5.632847
v 3.062586 4.494238 -5.172370
v 2.789462 5.133115 -6.101261
v 3.754874 4.876326 -6.561739
vt 0.625000 0.500000
vt 0.875000 0.500000
vt 0.875000 0.750000
vt 0.625000 0.750000
vt 0.375000 0.750000
vt 0.625000 1.000000
vt 0.375000 1.000000
vt 0.375000 0.000000
vt 0.625000 0.000000
vt 0.625000 0.250000
vt 0.375000 0.250000
vt 0.125000 0.500000
vt 0.375000 0.500000
vt 0.125000 0.750000
vn 0.4175 0.8014 0.4284
vn 0.2355 -0.5508 0.8008
vn -0.8776 0.2334 0.4186
vn -0.4175 -0.8014 -0.4284
vn 0.8776 -0.2334 -0.4186
vn -0.2355 0.5508 -0.8008
usemtl Material.001
s 1
f 1/1/1 2/2/1 3/3/1 4/4/1
f 5/5/2 4/4/2 3/6/2 6/7/2
f 6/8/3 3/9/3 2/10/3 7/11/3
f 7/12/4 8/13/4 5/5/4 6/14/4
f 8/13/5 1/1/5 4/4/5 5/5/5
f 7/11/6 2/10/6 1/1/6 8/13/6
